<?xml version="1.0" standalone="no"?><!DOCTYPE svg PUBLIC "-//W3C//DTD SVG 1.1//EN" "http://www.w3.org/Graphics/SVG/1.1/DTD/svg11.dtd"><svg t="1769596230735" class="icon" viewBox="0 0 1024 1024" version="1.1" xmlns="http://www.w3.org/2000/svg" p-id="8174" xmlns:xlink="http://www.w3.org/1999/xlink" width="128" height="128"><path d="M153.6 262.4S76.8 339.2 70.4 416v12.8c6.4 70.4 57.6 108.8 57.6 108.8 76.8 76.8 268.8 172.8 313.6 192H448C320 460.8 153.6 262.4 153.6 262.4z m256 531.2c0-6.4 0-6.4 0 0l-320 6.4c32 64 89.6 108.8 153.6 96 44.8-12.8 134.4-76.8 166.4-102.4z m6.4-32C275.2 665.6 12.8 524.8 12.8 524.8c-6.4 19.2-12.8 38.4-12.8 57.6 0 44.8 19.2 76.8 19.2 76.8 19.2 44.8 57.6 76.8 102.4 96 25.6 12.8 57.6 12.8 57.6 12.8h236.8v-6.4zM384 134.4c-64 12.8-108.8 70.4-108.8 134.4v19.2c0 25.6 6.4 44.8 6.4 44.8 25.6 121.6 166.4 326.4 192 371.2h6.4v-6.4c51.2-448-44.8-569.6-44.8-569.6-12.8 0-51.2 6.4-51.2 6.4z m358.4 96s-19.2-76.8-102.4-96c0 0-25.6-6.4-51.2-6.4 0 0-96 121.6-44.8 576v6.4h6.4c32-44.8 166.4-243.2 192-371.2 0-6.4 12.8-64 0-108.8z m-128 563.2c25.6 25.6 121.6 89.6 160 102.4h25.6c32 0 83.2-12.8 128-96l-313.6-6.4z m332.8-364.8c6.4-89.6-83.2-166.4-83.2-172.8 0 0-166.4 198.4-281.6 460.8v6.4c44.8-25.6 230.4-115.2 313.6-192 0 6.4 51.2-38.4 51.2-102.4z m70.4 96s-268.8 140.8-403.2 236.8v6.4h243.2s25.6 0 51.2-12.8c0 0 64-19.2 102.4-96-6.4 0 25.6-64 6.4-134.4z" p-id="8175"></path></svg>