<?xml version="1.0" standalone="no"?><!DOCTYPE svg PUBLIC "-//W3C//DTD SVG 1.1//EN" "http://www.w3.org/Graphics/SVG/1.1/DTD/svg11.dtd"><svg t="1773910497185" class="icon" viewBox="0 0 1024 1024" version="1.1" xmlns="http://www.w3.org/2000/svg" p-id="33669" xmlns:xlink="http://www.w3.org/1999/xlink" width="128" height="128"><path d="M938.666667 512c-51.2 0-85.333333 34.133333-85.333334 85.333333v256H170.666667V597.333333c0-51.2-34.133333-85.333333-85.333334-85.333333s-85.333333 34.133333-85.333333 85.333333v256c0 93.866667 76.8 170.666667 170.666667 170.666667h682.666666c93.866667 0 170.666667-76.8 170.666667-170.666667V597.333333c0-51.2-34.133333-85.333333-85.333333-85.333333z" p-id="33670"></path><path d="M810.666667 264.533333L571.733333 25.6c-34.133333-34.133333-85.333333-34.133333-119.466666 0L213.333333 264.533333c-34.133333 34.133333-34.133333 85.333333 0 119.466667 34.133333 34.133333 85.333333 34.133333 119.466667 0L426.666667 290.133333V682.666667c0 51.2 34.133333 85.333333 85.333333 85.333333s85.333333-34.133333 85.333333-85.333333V290.133333l93.866667 93.866667c34.133333 34.133333 85.333333 34.133333 119.466667 0 34.133333-34.133333 34.133333-85.333333 0-119.466667z" p-id="33671"></path></svg>